<?xml version="1.0" encoding="UTF-8" standalone="no"?>
<svg
   xmlns:dc="http://purl.org/dc/elements/1.1/"
   xmlns:cc="http://creativecommons.org/ns#"
   xmlns:rdf="http://www.w3.org/1999/02/22-rdf-syntax-ns#"
   xmlns:svg="http://www.w3.org/2000/svg"
   xmlns="http://www.w3.org/2000/svg"
   xmlns:xlink="http://www.w3.org/1999/xlink"
   xmlns:sodipodi="http://sodipodi.sourceforge.net/DTD/sodipodi-0.dtd"
   xmlns:inkscape="http://www.inkscape.org/namespaces/inkscape"
   sodipodi:docname="background.svg"
   inkscape:version="1.0 (4035a4fb49, 2020-05-01)"
   id="svg8"
   version="1.1"
   viewBox="0 0 507.99999 285.75001"
   height="1080"
   width="1920">
  <defs
     id="defs2">
    <linearGradient
       id="linearGradient1984"
       inkscape:collect="always">
      <stop
         id="stop1980"
         offset="0"
         style="stop-color:#f4f9b7;stop-opacity:1" />
      <stop
         id="stop1982"
         offset="1"
         style="stop-color:#ceb885;stop-opacity:0;" />
    </linearGradient>
    <linearGradient
       id="linearGradient1000"
       inkscape:collect="always">
      <stop
         id="stop996"
         offset="0"
         style="stop-color:#e1de90;stop-opacity:1" />
      <stop
         id="stop998"
         offset="1"
         style="stop-color:#ceb885;stop-opacity:0;" />
    </linearGradient>
    <linearGradient
       id="linearGradient970"
       inkscape:collect="always">
      <stop
         id="stop966"
         offset="0"
         style="stop-color:#f4f9b7;stop-opacity:1" />
      <stop
         id="stop968"
         offset="1"
         style="stop-color:#000000;stop-opacity:0;" />
    </linearGradient>
    <linearGradient
       id="linearGradient926"
       inkscape:collect="always">
      <stop
         id="stop922"
         offset="0"
         style="stop-color:#fc8300;stop-opacity:0.87725633" />
      <stop
         id="stop924"
         offset="1"
         style="stop-color:#ffbc56;stop-opacity:0;" />
    </linearGradient>
    <linearGradient
       id="linearGradient851-6"
       inkscape:collect="always">
      <stop
         style="stop-color:#cc3463;stop-opacity:1"
         offset="0"
         id="stop849" />
      <stop
         style="stop-color:#271b29;stop-opacity:1;"
         offset="1"
         id="stop847" />
    </linearGradient>
    <linearGradient
       gradientTransform="matrix(1.3958639,0,0,1.3280744,-47.977162,-37.467639)"
       gradientUnits="userSpaceOnUse"
       y2="25.324406"
       x2="212.8006"
       y1="152.60988"
       x1="210.21962"
       id="linearGradient853"
       xlink:href="#linearGradient851-6"
       inkscape:collect="always" />
    <radialGradient
       gradientUnits="userSpaceOnUse"
       gradientTransform="matrix(4.6127449,0,0,4.5829823,-1811.8778,-225.19387)"
       r="2.0037787"
       fy="81.342003"
       fx="519.13458"
       cy="81.342003"
       cx="519.13458"
       id="radialGradient928"
       xlink:href="#linearGradient926"
       inkscape:collect="always" />
    <radialGradient
       r="2.0037787"
       fy="81.342003"
       fx="519.13458"
       cy="81.342003"
       cx="519.13458"
       gradientTransform="matrix(4.6127449,0,0,4.5829823,-1811.8778,-225.19387)"
       gradientUnits="userSpaceOnUse"
       id="radialGradient948"
       xlink:href="#linearGradient926"
       inkscape:collect="always" />
    <radialGradient
       r="2.0037787"
       fy="81.342003"
       fx="519.13458"
       cy="81.342003"
       cx="519.13458"
       gradientTransform="matrix(4.6127449,0,0,4.5829823,-1811.8778,-225.19387)"
       gradientUnits="userSpaceOnUse"
       id="radialGradient950"
       xlink:href="#linearGradient926"
       inkscape:collect="always" />
    <radialGradient
       r="2.0037787"
       fy="81.342003"
       fx="519.13458"
       cy="81.342003"
       cx="519.13458"
       gradientTransform="matrix(4.6127449,0,0,4.5829823,-1811.8778,-225.19387)"
       gradientUnits="userSpaceOnUse"
       id="radialGradient952"
       xlink:href="#linearGradient926"
       inkscape:collect="always" />
    <radialGradient
       r="2.0037787"
       fy="81.342003"
       fx="519.13458"
       cy="81.342003"
       cx="519.13458"
       gradientTransform="matrix(4.6127449,0,0,4.5829823,-1811.8778,-225.19387)"
       gradientUnits="userSpaceOnUse"
       id="radialGradient954"
       xlink:href="#linearGradient926"
       inkscape:collect="always" />
    <radialGradient
       r="2.0037787"
       fy="81.342003"
       fx="519.13458"
       cy="81.342003"
       cx="519.13458"
       gradientTransform="matrix(4.6127449,0,0,4.5829823,-1811.8778,-225.19387)"
       gradientUnits="userSpaceOnUse"
       id="radialGradient956"
       xlink:href="#linearGradient926"
       inkscape:collect="always" />
    <radialGradient
       gradientUnits="userSpaceOnUse"
       gradientTransform="matrix(1.2364246,0.00517129,-0.00349526,0.83569271,-67.098409,23.698451)"
       r="63.925293"
       fy="153.23604"
       fx="286.07016"
       cy="153.23604"
       cx="286.07016"
       id="radialGradient1002"
       xlink:href="#linearGradient1000"
       inkscape:collect="always" />
    <filter
       height="1.024"
       y="-0.012"
       width="1.024"
       x="-0.012"
       id="filter1584"
       style="color-interpolation-filters:sRGB"
       inkscape:collect="always">
      <feGaussianBlur
         id="feGaussianBlur1586"
         stdDeviation="0.49342297"
         inkscape:collect="always" />
    </filter>
    <filter
       height="2.125203"
       y="-0.56260149"
       width="1.4545893"
       x="-0.22729463"
       id="filter1588"
       style="color-interpolation-filters:sRGB"
       inkscape:collect="always">
      <feGaussianBlur
         id="feGaussianBlur1590"
         stdDeviation="12.10823"
         inkscape:collect="always" />
    </filter>
    <filter
       height="1.2954159"
       y="-0.14770793"
       width="1.2935098"
       x="-0.14675488"
       id="filter1616"
       style="color-interpolation-filters:sRGB"
       inkscape:collect="always">
      <feGaussianBlur
         id="feGaussianBlur1618"
         stdDeviation="1.1303696"
         inkscape:collect="always" />
    </filter>
    <filter
       height="1.2954159"
       y="-0.14770793"
       width="1.2935098"
       x="-0.14675488"
       id="filter1652"
       style="color-interpolation-filters:sRGB"
       inkscape:collect="always">
      <feGaussianBlur
         id="feGaussianBlur1654"
         stdDeviation="1.1303696"
         inkscape:collect="always" />
    </filter>
    <filter
       height="1.2954159"
       y="-0.14770793"
       width="1.2935098"
       x="-0.14675488"
       id="filter1660"
       style="color-interpolation-filters:sRGB"
       inkscape:collect="always">
      <feGaussianBlur
         id="feGaussianBlur1662"
         stdDeviation="1.1303696"
         inkscape:collect="always" />
    </filter>
    <filter
       height="1.2954159"
       y="-0.14770793"
       width="1.2935098"
       x="-0.14675488"
       id="filter1668"
       style="color-interpolation-filters:sRGB"
       inkscape:collect="always">
      <feGaussianBlur
         id="feGaussianBlur1670"
         stdDeviation="1.1303696"
         inkscape:collect="always" />
    </filter>
    <filter
       height="1.2954159"
       y="-0.14770793"
       width="1.2935098"
       x="-0.14675488"
       id="filter1676"
       style="color-interpolation-filters:sRGB"
       inkscape:collect="always">
      <feGaussianBlur
         id="feGaussianBlur1678"
         stdDeviation="1.1303696"
         inkscape:collect="always" />
    </filter>
    <filter
       height="1.2954159"
       y="-0.14770793"
       width="1.2935098"
       x="-0.14675488"
       id="filter1684"
       style="color-interpolation-filters:sRGB"
       inkscape:collect="always">
      <feGaussianBlur
         id="feGaussianBlur1686"
         stdDeviation="1.1303696"
         inkscape:collect="always" />
    </filter>
    <filter
       height="1.0067907"
       y="-0.0033953597"
       width="1.0012842"
       x="-0.00064212374"
       id="filter1720"
       style="color-interpolation-filters:sRGB"
       inkscape:collect="always">
      <feGaussianBlur
         id="feGaussianBlur1722"
         stdDeviation="0.13579699"
         inkscape:collect="always" />
    </filter>
    <filter
       height="1.0127699"
       y="-0.0063849346"
       width="1.0039212"
       x="-0.0019605998"
       id="filter1724"
       style="color-interpolation-filters:sRGB"
       inkscape:collect="always">
      <feGaussianBlur
         id="feGaussianBlur1726"
         stdDeviation="1.5660977"
         inkscape:collect="always" />
    </filter>
    <filter
       height="1.4971507"
       y="-0.24857536"
       width="1.4677889"
       x="-0.23389444"
       id="filter1926"
       style="color-interpolation-filters:sRGB"
       inkscape:collect="always">
      <feGaussianBlur
         id="feGaussianBlur1928"
         stdDeviation="0.65656179"
         inkscape:collect="always" />
    </filter>
    <filter
       height="1.2095772"
       y="-0.10478858"
       width="1.237066"
       x="-0.118533"
       id="filter1938"
       style="color-interpolation-filters:sRGB"
       inkscape:collect="always">
      <feGaussianBlur
         id="feGaussianBlur1940"
         stdDeviation="4.6570451"
         inkscape:collect="always" />
    </filter>
    <filter
       height="1.6520474"
       y="-0.3260237"
       width="1.5745362"
       x="-0.28726809"
       id="filter1951"
       style="color-interpolation-filters:sRGB"
       inkscape:collect="always">
      <feGaussianBlur
         id="feGaussianBlur1953"
         stdDeviation="0.8200715"
         inkscape:collect="always" />
    </filter>
    <filter
       inkscape:collect="always"
       style="color-interpolation-filters:sRGB"
       id="filter1972"
       x="-0.32180654"
       width="1.6436131"
       y="-0.32244188"
       height="1.6448838">
      <feGaussianBlur
         inkscape:collect="always"
         stdDeviation="8.7526452"
         id="feGaussianBlur1970" />
    </filter>
    <filter
       inkscape:collect="always"
       style="color-interpolation-filters:sRGB"
       id="filter1976"
       x="-0.33763945"
       width="1.6752789"
       y="-0.29848869"
       height="1.5969774">
      <feGaussianBlur
         inkscape:collect="always"
         stdDeviation="13.265522"
         id="feGaussianBlur1974" />
    </filter>
    <linearGradient
       gradientUnits="userSpaceOnUse"
       y2="150.01599"
       x2="288.96475"
       y1="50.225281"
       x1="287.83005"
       id="linearGradient1978"
       xlink:href="#linearGradient970"
       inkscape:collect="always" />
    <linearGradient
       gradientUnits="userSpaceOnUse"
       y2="150.01599"
       x2="288.96475"
       y1="50.225281"
       x1="287.83005"
       id="linearGradient1986"
       xlink:href="#linearGradient1984"
       inkscape:collect="always" />
    <filter
       height="1.0882345"
       y="-0.044117263"
       width="1.0882345"
       x="-0.044117263"
       id="filter2030"
       style="color-interpolation-filters:sRGB"
       inkscape:collect="always">
      <feGaussianBlur
         id="feGaussianBlur2032"
         stdDeviation="0.078310303"
         inkscape:collect="always" />
    </filter>
    <filter
       height="1.0260288"
       y="-0.013014423"
       width="1.0222646"
       x="-0.011132282"
       id="filter2048"
       style="color-interpolation-filters:sRGB"
       inkscape:collect="always">
      <feGaussianBlur
         id="feGaussianBlur2050"
         stdDeviation="0.21859571"
         inkscape:collect="always" />
    </filter>
  </defs>
  <sodipodi:namedview
     inkscape:window-maximized="1"
     inkscape:window-y="-8"
     inkscape:window-x="-8"
     inkscape:window-height="1017"
     inkscape:window-width="1920"
     units="px"
     showgrid="false"
     inkscape:document-rotation="0"
     inkscape:current-layer="layer1"
     inkscape:document-units="px"
     inkscape:cy="727.85409"
     inkscape:cx="767.42619"
     inkscape:zoom="0.35"
     inkscape:pageshadow="2"
     inkscape:pageopacity="0.0"
     borderopacity="1.0"
     bordercolor="#666666"
     pagecolor="#ffffff"
     id="base" />
  <metadata
     id="metadata5">
    <rdf:RDF>
      <cc:Work
         rdf:about="">
        <dc:format>image/svg+xml</dc:format>
        <dc:type
           rdf:resource="http://purl.org/dc/dcmitype/StillImage" />
        <dc:title></dc:title>
      </cc:Work>
    </rdf:RDF>
  </metadata>
  <g
     style="display:inline"
     id="layer1"
     inkscape:groupmode="layer"
     inkscape:label="레이어 0">
    <rect
       inkscape:label="전체배경"
       y="-0.3210758"
       x="0.034744047"
       height="287.63483"
       width="507.55444"
       id="rect845"
       style="opacity:1;fill:url(#linearGradient853);fill-opacity:1;stroke-width:0.360242" />
    <g
       inkscape:label="달"
       id="g2077">
      <ellipse
         style="opacity:1;fill:url(#radialGradient1002);fill-opacity:1;stroke:none;stroke-width:0.25506;stroke-opacity:1;filter:url(#filter1588)"
         id="path982"
         cx="286.07016"
         cy="153.23604"
         rx="63.925293"
         ry="25.826231"
         transform="matrix(0.96116149,0,0,1.5561078,10.15999,-98.83599)" />
      <g
         id="g2059"
         inkscape:label="달">
        <circle
           inkscape:label="moon"
           r="49.342297"
           cy="100.87373"
           cx="287.63861"
           id="path962"
           style="opacity:1;fill:url(#linearGradient1986);fill-opacity:1;stroke:url(#linearGradient1978);stroke-width:0.264583;stroke-opacity:1;filter:url(#filter1584)" />
        <ellipse
           transform="matrix(0.86049626,0.50945676,-0.29372139,0.95589107,0,0)"
           ry="2.5479846"
           rx="3.7049837"
           cy="-101.73629"
           cx="319.84698"
           id="path1728"
           style="opacity:0.545723;fill:#000000;fill-opacity:0.234657;stroke:none;stroke-width:0.186747;stroke-opacity:1;filter:url(#filter1926)" />
        <path
           sodipodi:nodetypes="ccccsccscccccccc"
           transform="matrix(0.26458334,0,0,0.26458334,-10.603975,5.4406099)"
           d="m 1027.4238,299.51758 c 0,0 -9.0675,4.44465 -11.765,5.25473 -4.0036,1.93055 -7.4908,1.99073 -13.4788,2.56928 0,0 -4.53862,7.06355 -8.31272,8.01035 -3.42957,8.27717 -12.3453,8.35693 -12.3458,14.68908 -5.1e-4,5.82495 1.91443,10.80661 8.62616,14.35643 -0.0868,2.37519 2.298,5.21868 3.10236,7.40724 3.95689,10.76437 17.3956,15.75316 30.0156,11.14258 6.4261,-2.34787 9.427,-5.13605 12.2674,-10.76819 3.9036,-2.61821 7.242,-2.67582 2.8732,-8.08307 l -1.563,-6.18555 c -3.633,-6.1621 7.4406,-6.4008 7.4418,-12.05707 -4e-4,-5.65696 4.3027,-2.50914 1.6476,-16.04997 l -5.0383,-5.52473 -4.9998,-3.53455 c -2.6988,-0.81044 -5.5719,-1.22647 -8.4707,-1.22656 z"
           style="opacity:0.545723;fill:#000000;fill-opacity:0.34296;stroke:none;stroke-width:1.23438;stroke-opacity:1;filter:url(#filter1972)"
           id="ellipse1730" />
        <ellipse
           transform="matrix(-0.795808,0.60554903,-0.56618199,-0.82428026,13.120811,-21.30621)"
           ry="2.1631873"
           rx="4.0146847"
           cy="-294.00977"
           cx="-168.10518"
           id="ellipse1736"
           style="opacity:0.545723;fill:#000000;fill-opacity:0.34296;stroke:none;stroke-width:0.179116;stroke-opacity:1;filter:url(#filter1951)" />
        <path
           transform="matrix(-0.13252731,-0.22899969,0.22899969,-0.13252731,300.48721,425.69503)"
           d="m 1043.4551,407.19531 c 0,0 -11.5354,5.44998 -14.9668,6.44336 -5.0929,2.36738 -9.5274,2.44093 -17.1445,3.15039 0,0 -5.7753,8.66123 -10.5762,9.82227 -4.3627,10.15006 -15.70251,10.24873 -15.70315,18.01367 -6.5e-4,7.14297 2.43482,13.25242 10.97266,17.60547 -0.11042,2.91263 2.9221,6.39826 3.94531,9.08203 5.03348,13.20004 22.12998,19.31789 38.18358,13.66406 4.0743,-1.435 7.0646,-3.00404 9.4883,-5.07226 0.1288,0.10742 0.224,0.18961 0.3555,0.29882 0,0 10.2083,-2.03439 14.4218,0.54297 10.2655,-4.08363 18.3481,3.87423 23.8438,-1.61132 5.0556,-5.04613 7.6584,-11.08736 4.707,-20.20508 2.1393,-1.97966 2.4623,-6.58875 3.6387,-9.20899 5.7855,-12.88816 -1.9614,-29.30907 -17.3047,-36.67578 -7.5173,-3.60906 -12.5599,-3.98489 -19.5566,-1.9414 l -3.5293,-2.4043 c -3.4331,-0.99382 -7.0879,-1.5038 -10.7754,-1.50391 z"
           style="opacity:0.637168;fill:#000000;fill-opacity:0.34296;stroke:none;stroke-width:1.5417;stroke-opacity:1;filter:url(#filter1976)"
           id="path1944" />
        <path
           sodipodi:nodetypes="ccccsccscccccccc"
           transform="matrix(0.06705991,0,0,0.10038914,225.05933,59.440236)"
           d="m 1027.4238,299.51758 c 0,0 -9.0675,4.44465 -11.765,5.25473 -4.0036,1.93055 -7.4908,1.99073 -13.4788,2.56928 0,0 -4.53862,7.06355 -8.31272,8.01035 -3.42957,8.27717 -12.3453,8.35693 -12.3458,14.68908 -5.1e-4,5.82495 1.91443,10.80661 8.62616,14.35643 -0.0868,2.37519 2.298,5.21868 3.10236,7.40724 3.95689,10.76437 17.3956,15.75316 30.0156,11.14258 6.4261,-2.34787 9.427,-5.13605 12.2674,-10.76819 3.9036,-2.61821 7.242,-2.67582 2.8732,-8.08307 l -1.563,-6.18555 c -3.633,-6.1621 7.4406,-6.4008 7.4418,-12.05707 -4e-4,-5.65696 4.3027,-2.50914 1.6476,-16.04997 l -5.0383,-5.52473 -4.9998,-3.53455 c -2.6988,-0.81044 -5.5719,-1.22647 -8.4707,-1.22656 z"
           style="opacity:0.274336;fill:#000000;fill-opacity:0.34296;stroke:none;stroke-width:1.23438;stroke-opacity:1;filter:url(#filter1938)"
           id="path1946" />
      </g>
    </g>
    <g
       inkscape:label="별"
       id="g2085">
      <circle
         style="opacity:1;fill:#ffffff;fill-opacity:1;stroke:none;stroke-width:0.264583;stroke-opacity:1;filter:url(#filter2030)"
         id="path1992"
         cx="39.97699"
         cy="30.085522"
         r="2.1300588"
         inkscape:label="star" />
      <circle
         inkscape:label="star"
         r="2.1300588"
         cy="7.6602116"
         cx="188.13014"
         id="circle2034"
         style="opacity:1;fill:#ffffff;fill-opacity:1;stroke:none;stroke-width:0.264583;stroke-opacity:1;filter:url(#filter2030)" />
      <circle
         style="opacity:1;fill:#ffffff;fill-opacity:1;stroke:none;stroke-width:0.264583;stroke-opacity:1;filter:url(#filter2030)"
         id="circle2036"
         cx="487.17084"
         cy="87.902962"
         r="2.1300588"
         inkscape:label="star" />
      <circle
         inkscape:label="star"
         r="2.1300588"
         cy="90.966888"
         cx="166.43353"
         id="circle2038"
         style="opacity:1;fill:#ffffff;fill-opacity:1;stroke:none;stroke-width:0.264583;stroke-opacity:1;filter:url(#filter2030)" />
      <circle
         style="opacity:1;fill:#ffffff;fill-opacity:1;stroke:none;stroke-width:0.264583;stroke-opacity:1;filter:url(#filter2030)"
         id="circle2040"
         cx="373.96677"
         cy="110.53639"
         r="2.1300588"
         inkscape:label="star" />
      <circle
         inkscape:label="star"
         r="2.1300588"
         cy="33.615856"
         cx="388.15564"
         id="circle2042"
         style="opacity:1;fill:#ffffff;fill-opacity:1;stroke:none;stroke-width:0.264583;stroke-opacity:1;filter:url(#filter2030)" />
    </g>
    <g
       inkscape:label="별똥별"
       id="g2089">
      <ellipse
         style="opacity:1;fill:#ffffff;fill-opacity:1;stroke:none;stroke-width:0.199204;stroke-opacity:1"
         id="path2044"
         cx="128.53963"
         cy="103.81643"
         rx="18.456987"
         ry="0.39740726"
         transform="matrix(0.92245586,-0.38610256,0.1405884,0.99006813,0,0)"
         inkscape:label="별똥별" />
      <ellipse
         transform="rotate(-40.541402)"
         ry="0.4173407"
         rx="31.005062"
         cy="340.94052"
         cx="262.9306"
         id="ellipse2046"
         style="opacity:1;fill:#ffffff;fill-opacity:1;stroke:none;stroke-width:0.264583;stroke-opacity:1;filter:url(#filter2048)"
         inkscape:label="별똥별" />
    </g>
  </g>
  <g
     style="display:inline"
     inkscape:label="레이어 1"
     id="layer4"
     inkscape:groupmode="layer">
    <path
       inkscape:label="뒷산"
       transform="scale(0.26458334)"
       d="M 567.63672,497.23828 C 508.3223,497.60739 427.51476,721.9917 239.60156,769.74414 L 1.3632812,849.93555 v 229.71875 l 340.4550788,6.2559 H 1918.4473 V 669.08984 c -11.9791,-12.17841 -27.3672,-27.11974 -47.1114,-45.58984 -88.0093,47.49437 -181.4417,174.08376 -282.9609,187.42969 -57.8739,10.78828 -127.1257,-24.68214 -195.9414,-58.375 C 1329.4993,747.19974 1229.3957,550.21948 1165.9824,591.81836 1061.2588,619.36208 973.39981,704.07757 842.06055,675.6875 719.63987,699.30758 667.40716,563.41337 582.30664,502.21484 c -4.77002,-3.43027 -9.64328,-5.00784 -14.66992,-4.97656 z"
       style="fill:#a93857;fill-opacity:0.631769;stroke:none;stroke-width:1.18145px;stroke-linecap:butt;stroke-linejoin:miter;stroke-opacity:1;filter:url(#filter1724)"
       id="path892" />
  </g>
  <g
     style="display:inline"
     inkscape:label="레이어 2"
     id="layer2"
     inkscape:groupmode="layer">
    <path
       inkscape:label="앞산"
       sodipodi:nodetypes="sscssccccsscsss"
       d="m 327.71164,194.56035 c -9.69231,4.52123 -26.16695,9.97597 -28.73183,10.43533 -2.98456,0.53455 -34.55496,-2.72744 -34.55496,-2.72744 0,0 -42.13698,17.52129 -48.10612,18.59036 -5.96916,1.06908 -74.24879,-34.87203 -112.41159,-19.95686 -5.53586,2.16358 -58.592409,34.36167 -103.87229577,39.31342 v 47.09842 H 507.58931 V 191.3339 c -0.14481,0.009 -0.32693,-0.0396 -0.43498,0.031 -12.68446,8.28536 -24.62264,13.36331 -28.35333,14.43239 -3.73076,1.06908 -38.42643,17.37268 -38.42643,17.37268 0,0 -36.18865,5.61275 -43.65008,2.94005 -7.46147,-2.67269 -34.73149,-11.63354 -42.15713,-13.63053 -11.1805,-3.00678 -26.85572,-17.91915 -26.85572,-17.91915 z"
       style="fill:#401120;fill-opacity:1;stroke:none;stroke-width:0.312596px;stroke-linecap:butt;stroke-linejoin:miter;stroke-opacity:1;filter:url(#filter1720)"
       id="path886" />
  </g>
  <g
     style="display:inline"
     inkscape:label="레이어 3"
     id="layer3">
    <g
       inkscape:label="가로등"
       id="g2067">
      <path
         sodipodi:type="star"
         style="opacity:1;fill:url(#radialGradient928);fill-opacity:1;stroke:none;stroke-width:1.22045;stroke-opacity:1;filter:url(#filter1616)"
         id="path904"
         sodipodi:sides="10"
         sodipodi:cx="582.75763"
         sodipodi:cy="147.59509"
         sodipodi:r1="9.3281736"
         sodipodi:r2="4.6640868"
         sodipodi:arg1="0.13633161"
         sodipodi:arg2="0.45049088"
         inkscape:flatsided="false"
         inkscape:rounded="0.13"
         inkscape:randomized="0"
         d="m 591.99925,148.86288 c -0.0901,0.65688 -4.75416,0.16611 -5.04285,0.76299 -0.28869,0.59688 2.99168,3.94851 2.53267,4.42697 -0.45901,0.47846 -3.94383,-2.66004 -4.52823,-2.34684 -0.58439,0.3132 0.0994,4.95288 -0.55313,5.07016 -0.65258,0.11729 -1.6271,-4.47014 -2.28398,-4.56026 -0.65688,-0.0901 -2.83077,4.06542 -3.42766,3.77673 -0.59688,-0.28869 1.31114,-4.57281 0.83268,-5.03182 -0.47846,-0.459 -4.67973,1.6251 -4.99294,1.04071 -0.3132,-0.5844 3.74857,-2.92881 3.63128,-3.58139 -0.11728,-0.65257 -4.74119,-1.43595 -4.65108,-2.09283 0.0901,-0.65688 4.75416,-0.1661 5.04285,-0.76299 0.28869,-0.59688 -2.99168,-3.94851 -2.53267,-4.42697 0.45901,-0.47846 3.94383,2.66005 4.52823,2.34685 0.58439,-0.31321 -0.0995,-4.95288 0.55313,-5.07017 0.65258,-0.11728 1.62709,4.47015 2.28397,4.56026 0.65688,0.0901 2.83078,-4.06541 3.42767,-3.77672 0.59688,0.28869 -1.31115,4.57281 -0.83269,5.03181 0.47847,0.45901 4.67974,-1.6251 4.99294,-1.0407 0.31321,0.58439 -3.74856,2.92881 -3.63128,3.58138 0.11729,0.65258 4.7412,1.43595 4.65109,2.09283 z"
         inkscape:transform-center-x="-1.3078407e-05"
         inkscape:transform-center-y="5.8913818e-06"
         transform="matrix(0.60981326,0,0,0.5487305,-323.72759,164.67979)" />
      <path
         transform="matrix(0.60981326,0,0,0.5487305,136.58638,148.42879)"
         inkscape:transform-center-y="5.8913818e-06"
         inkscape:transform-center-x="-1.3078407e-05"
         d="m 591.99925,148.86288 c -0.0901,0.65688 -4.75416,0.16611 -5.04285,0.76299 -0.28869,0.59688 2.99168,3.94851 2.53267,4.42697 -0.45901,0.47846 -3.94383,-2.66004 -4.52823,-2.34684 -0.58439,0.3132 0.0994,4.95288 -0.55313,5.07016 -0.65258,0.11729 -1.6271,-4.47014 -2.28398,-4.56026 -0.65688,-0.0901 -2.83077,4.06542 -3.42766,3.77673 -0.59688,-0.28869 1.31114,-4.57281 0.83268,-5.03182 -0.47846,-0.459 -4.67973,1.6251 -4.99294,1.04071 -0.3132,-0.5844 3.74857,-2.92881 3.63128,-3.58139 -0.11728,-0.65257 -4.74119,-1.43595 -4.65108,-2.09283 0.0901,-0.65688 4.75416,-0.1661 5.04285,-0.76299 0.28869,-0.59688 -2.99168,-3.94851 -2.53267,-4.42697 0.45901,-0.47846 3.94383,2.66005 4.52823,2.34685 0.58439,-0.31321 -0.0995,-4.95288 0.55313,-5.07017 0.65258,-0.11728 1.62709,4.47015 2.28397,4.56026 0.65688,0.0901 2.83078,-4.06541 3.42767,-3.77672 0.59688,0.28869 -1.31115,4.57281 -0.83269,5.03181 0.47847,0.45901 4.67974,-1.6251 4.99294,-1.0407 0.31321,0.58439 -3.74856,2.92881 -3.63128,3.58138 0.11729,0.65258 4.7412,1.43595 4.65109,2.09283 z"
         inkscape:randomized="0"
         inkscape:rounded="0.13"
         inkscape:flatsided="false"
         sodipodi:arg2="0.45049088"
         sodipodi:arg1="0.13633161"
         sodipodi:r2="4.6640868"
         sodipodi:r1="9.3281736"
         sodipodi:cy="147.59509"
         sodipodi:cx="582.75763"
         sodipodi:sides="10"
         id="path938"
         style="opacity:1;fill:url(#radialGradient956);fill-opacity:1;stroke:none;stroke-width:1.22045;stroke-opacity:1;filter:url(#filter1684)"
         sodipodi:type="star" />
      <path
         sodipodi:type="star"
         style="opacity:1;fill:url(#radialGradient954);fill-opacity:1;stroke:none;stroke-width:1.22045;stroke-opacity:1;filter:url(#filter1676)"
         id="path940"
         sodipodi:sides="10"
         sodipodi:cx="582.75763"
         sodipodi:cy="147.59509"
         sodipodi:r1="9.3281736"
         sodipodi:r2="4.6640868"
         sodipodi:arg1="0.13633161"
         sodipodi:arg2="0.45049088"
         inkscape:flatsided="false"
         inkscape:rounded="0.13"
         inkscape:randomized="0"
         d="m 591.99925,148.86288 c -0.0901,0.65688 -4.75416,0.16611 -5.04285,0.76299 -0.28869,0.59688 2.99168,3.94851 2.53267,4.42697 -0.45901,0.47846 -3.94383,-2.66004 -4.52823,-2.34684 -0.58439,0.3132 0.0994,4.95288 -0.55313,5.07016 -0.65258,0.11729 -1.6271,-4.47014 -2.28398,-4.56026 -0.65688,-0.0901 -2.83077,4.06542 -3.42766,3.77673 -0.59688,-0.28869 1.31114,-4.57281 0.83268,-5.03182 -0.47846,-0.459 -4.67973,1.6251 -4.99294,1.04071 -0.3132,-0.5844 3.74857,-2.92881 3.63128,-3.58139 -0.11728,-0.65257 -4.74119,-1.43595 -4.65108,-2.09283 0.0901,-0.65688 4.75416,-0.1661 5.04285,-0.76299 0.28869,-0.59688 -2.99168,-3.94851 -2.53267,-4.42697 0.45901,-0.47846 3.94383,2.66005 4.52823,2.34685 0.58439,-0.31321 -0.0995,-4.95288 0.55313,-5.07017 0.65258,-0.11728 1.62709,4.47015 2.28397,4.56026 0.65688,0.0901 2.83078,-4.06541 3.42767,-3.77672 0.59688,0.28869 -1.31115,4.57281 -0.83269,5.03181 0.47847,0.45901 4.67974,-1.6251 4.99294,-1.0407 0.31321,0.58439 -3.74856,2.92881 -3.63128,3.58138 0.11729,0.65258 4.7412,1.43595 4.65109,2.09283 z"
         inkscape:transform-center-x="-1.3078407e-05"
         inkscape:transform-center-y="5.8913818e-06"
         transform="matrix(0.60981326,0,0,0.5487305,82.049643,151.96444)" />
      <path
         transform="matrix(0.60981326,0,0,0.5487305,-58.565455,159.98558)"
         inkscape:transform-center-y="5.8913818e-06"
         inkscape:transform-center-x="-1.3078407e-05"
         d="m 591.99925,148.86288 c -0.0901,0.65688 -4.75416,0.16611 -5.04285,0.76299 -0.28869,0.59688 2.99168,3.94851 2.53267,4.42697 -0.45901,0.47846 -3.94383,-2.66004 -4.52823,-2.34684 -0.58439,0.3132 0.0994,4.95288 -0.55313,5.07016 -0.65258,0.11729 -1.6271,-4.47014 -2.28398,-4.56026 -0.65688,-0.0901 -2.83077,4.06542 -3.42766,3.77673 -0.59688,-0.28869 1.31114,-4.57281 0.83268,-5.03182 -0.47846,-0.459 -4.67973,1.6251 -4.99294,1.04071 -0.3132,-0.5844 3.74857,-2.92881 3.63128,-3.58139 -0.11728,-0.65257 -4.74119,-1.43595 -4.65108,-2.09283 0.0901,-0.65688 4.75416,-0.1661 5.04285,-0.76299 0.28869,-0.59688 -2.99168,-3.94851 -2.53267,-4.42697 0.45901,-0.47846 3.94383,2.66005 4.52823,2.34685 0.58439,-0.31321 -0.0995,-4.95288 0.55313,-5.07017 0.65258,-0.11728 1.62709,4.47015 2.28397,4.56026 0.65688,0.0901 2.83078,-4.06541 3.42767,-3.77672 0.59688,0.28869 -1.31115,4.57281 -0.83269,5.03181 0.47847,0.45901 4.67974,-1.6251 4.99294,-1.0407 0.31321,0.58439 -3.74856,2.92881 -3.63128,3.58138 0.11729,0.65258 4.7412,1.43595 4.65109,2.09283 z"
         inkscape:randomized="0"
         inkscape:rounded="0.13"
         inkscape:flatsided="false"
         sodipodi:arg2="0.45049088"
         sodipodi:arg1="0.13633161"
         sodipodi:r2="4.6640868"
         sodipodi:r1="9.3281736"
         sodipodi:cy="147.59509"
         sodipodi:cx="582.75763"
         sodipodi:sides="10"
         id="path942"
         style="opacity:1;fill:url(#radialGradient952);fill-opacity:1;stroke:none;stroke-width:1.22045;stroke-opacity:1;filter:url(#filter1668)"
         sodipodi:type="star" />
      <path
         sodipodi:type="star"
         style="opacity:1;fill:url(#radialGradient950);fill-opacity:1;stroke:none;stroke-width:1.22045;stroke-opacity:1;filter:url(#filter1660)"
         id="path944"
         sodipodi:sides="10"
         sodipodi:cx="582.75763"
         sodipodi:cy="147.59509"
         sodipodi:r1="9.3281736"
         sodipodi:r2="4.6640868"
         sodipodi:arg1="0.13633161"
         sodipodi:arg2="0.45049088"
         inkscape:flatsided="false"
         inkscape:rounded="0.13"
         inkscape:randomized="0"
         d="m 591.99925,148.86288 c -0.0901,0.65688 -4.75416,0.16611 -5.04285,0.76299 -0.28869,0.59688 2.99168,3.94851 2.53267,4.42697 -0.45901,0.47846 -3.94383,-2.66004 -4.52823,-2.34684 -0.58439,0.3132 0.0994,4.95288 -0.55313,5.07016 -0.65258,0.11729 -1.6271,-4.47014 -2.28398,-4.56026 -0.65688,-0.0901 -2.83077,4.06542 -3.42766,3.77673 -0.59688,-0.28869 1.31114,-4.57281 0.83268,-5.03182 -0.47846,-0.459 -4.67973,1.6251 -4.99294,1.04071 -0.3132,-0.5844 3.74857,-2.92881 3.63128,-3.58139 -0.11728,-0.65257 -4.74119,-1.43595 -4.65108,-2.09283 0.0901,-0.65688 4.75416,-0.1661 5.04285,-0.76299 0.28869,-0.59688 -2.99168,-3.94851 -2.53267,-4.42697 0.45901,-0.47846 3.94383,2.66005 4.52823,2.34685 0.58439,-0.31321 -0.0995,-4.95288 0.55313,-5.07017 0.65258,-0.11728 1.62709,4.47015 2.28397,4.56026 0.65688,0.0901 2.83078,-4.06541 3.42767,-3.77672 0.59688,0.28869 -1.31115,4.57281 -0.83269,5.03181 0.47847,0.45901 4.67974,-1.6251 4.99294,-1.0407 0.31321,0.58439 -3.74856,2.92881 -3.63128,3.58138 0.11729,0.65258 4.7412,1.43595 4.65109,2.09283 z"
         inkscape:transform-center-x="-1.3078407e-05"
         inkscape:transform-center-y="5.8913818e-06"
         transform="matrix(0.60981326,0,0,0.5487305,-157.99911,162.28243)" />
      <path
         transform="matrix(0.60981326,0,0,0.5487305,-236.33951,163.43336)"
         inkscape:transform-center-y="5.8913818e-06"
         inkscape:transform-center-x="-1.3078407e-05"
         d="m 591.99925,148.86288 c -0.0901,0.65688 -4.75416,0.16611 -5.04285,0.76299 -0.28869,0.59688 2.99168,3.94851 2.53267,4.42697 -0.45901,0.47846 -3.94383,-2.66004 -4.52823,-2.34684 -0.58439,0.3132 0.0994,4.95288 -0.55313,5.07016 -0.65258,0.11729 -1.6271,-4.47014 -2.28398,-4.56026 -0.65688,-0.0901 -2.83077,4.06542 -3.42766,3.77673 -0.59688,-0.28869 1.31114,-4.57281 0.83268,-5.03182 -0.47846,-0.459 -4.67973,1.6251 -4.99294,1.04071 -0.3132,-0.5844 3.74857,-2.92881 3.63128,-3.58139 -0.11728,-0.65257 -4.74119,-1.43595 -4.65108,-2.09283 0.0901,-0.65688 4.75416,-0.1661 5.04285,-0.76299 0.28869,-0.59688 -2.99168,-3.94851 -2.53267,-4.42697 0.45901,-0.47846 3.94383,2.66005 4.52823,2.34685 0.58439,-0.31321 -0.0995,-4.95288 0.55313,-5.07017 0.65258,-0.11728 1.62709,4.47015 2.28397,4.56026 0.65688,0.0901 2.83078,-4.06541 3.42767,-3.77672 0.59688,0.28869 -1.31115,4.57281 -0.83269,5.03181 0.47847,0.45901 4.67974,-1.6251 4.99294,-1.0407 0.31321,0.58439 -3.74856,2.92881 -3.63128,3.58138 0.11729,0.65258 4.7412,1.43595 4.65109,2.09283 z"
         inkscape:randomized="0"
         inkscape:rounded="0.13"
         inkscape:flatsided="false"
         sodipodi:arg2="0.45049088"
         sodipodi:arg1="0.13633161"
         sodipodi:r2="4.6640868"
         sodipodi:r1="9.3281736"
         sodipodi:cy="147.59509"
         sodipodi:cx="582.75763"
         sodipodi:sides="10"
         id="path946"
         style="opacity:1;fill:url(#radialGradient948);fill-opacity:1;stroke:none;stroke-width:1.22045;stroke-opacity:1;filter:url(#filter1652)"
         sodipodi:type="star" />
    </g>
    <path
       inkscape:label="도로"
       d="m 439.21625,248.88956 c -33.38274,7.73835 -67.36286,2.84586 -82.40421,5.08186 0,0 -21.88171,-2.09422 -60.43538,2.61431 -39.49966,4.82406 -141.5881,1.81901 -141.5881,1.81901 0,0 -92.140038,4.36824 -154.7538366,-2.10995 v 31.44926 L 509.23342,287.31357 v -36.88612 c -11.86078,1.67939 -17.73149,7.14548 -70.01717,-1.53789 z"
       style="mix-blend-mode:normal;fill:#111111;fill-opacity:1;stroke:none;stroke-width:0.313103px;stroke-linecap:butt;stroke-linejoin:miter;stroke-opacity:1"
       id="path862" />
  </g>
</svg>
